<?xml version="1.0" encoding="utf-8"?>
<svg viewBox="77.454 195.342 375.69 53.267" xmlns="http://www.w3.org/2000/svg">
  <g transform="matrix(2.653163, 0, 0, 2.653163, -362.938231, -462.802774)">
    <rect x="176.294" y="264.647" width="15.45" height="3.482" style="stroke-linejoin: round; stroke-linecap: round; fill: rgb(196, 191, 214);"/>
    <rect x="177.744" y="244.262" width="15.45" height="3.482" style="fill: rgb(196, 191, 214);" transform="matrix(0.681998, 0.731354, -0.731354, 0.681998, 232.674774, -48.519436)"/>
    <rect x="177.744" y="244.262" width="15.45" height="3.482" style="fill: rgb(196, 191, 214);" transform="matrix(0.71934, -0.694658, 0.694658, 0.71934, -131.549179, 213.3965)"/>
  </g>
  <path d="M 213.336 267.451 L 212.427 267.451 Q 212.266 267.451 212.163 267.365 Q 212.059 267.278 212.002 267.14 L 210.081 262.414 L 202.089 262.414 L 200.18 267.14 Q 200.134 267.267 200.019 267.359 Q 199.904 267.451 199.743 267.451 L 198.846 267.451 L 205.504 251.178 L 206.677 251.178 Z M 202.445 261.54 L 209.736 261.54 L 206.413 253.317 Q 206.332 253.122 206.252 252.875 Q 206.171 252.627 206.091 252.351 Q 206.01 252.627 205.93 252.875 Q 205.849 253.122 205.769 253.329 Z" style="fill: rgb(131, 103, 216); white-space: pre;" transform="matrix(2.653163, 0, 0, 2.653163, -363.788605, -462.617187)"/>
  <path d="M 222.656 266.611 Q 223.829 266.611 224.755 266.203 Q 225.68 265.795 226.324 265.07 Q 226.968 264.346 227.308 263.363 Q 227.647 262.379 227.647 261.241 L 227.647 251.178 L 228.82 251.178 L 228.82 261.241 Q 228.82 262.586 228.394 263.754 Q 227.969 264.921 227.17 265.789 Q 226.37 266.657 225.226 267.152 Q 224.082 267.646 222.656 267.646 Q 221.23 267.646 220.086 267.152 Q 218.941 266.657 218.142 265.789 Q 217.343 264.921 216.917 263.754 Q 216.492 262.586 216.492 261.241 L 216.492 251.178 L 217.676 251.178 L 217.676 261.229 Q 217.676 262.368 218.016 263.351 Q 218.355 264.334 218.993 265.059 Q 219.631 265.783 220.557 266.197 Q 221.483 266.611 222.656 266.611 Z" style="fill: rgb(131, 103, 216); white-space: pre;" transform="matrix(2.653163, 0, 0, 2.653163, -363.788605, -462.617187)"/>
  <path d="M 246.732 264.714 Q 246.847 264.714 246.927 264.794 L 247.387 265.289 Q 246.881 265.829 246.283 266.261 Q 245.685 266.692 244.978 266.997 Q 244.271 267.301 243.425 267.468 Q 242.58 267.635 241.568 267.635 Q 239.878 267.635 238.469 267.043 Q 237.06 266.45 236.054 265.364 Q 235.048 264.277 234.484 262.736 Q 233.921 261.195 233.921 259.309 Q 233.921 257.457 234.501 255.928 Q 235.082 254.398 236.134 253.3 Q 237.187 252.202 238.653 251.598 Q 240.119 250.994 241.89 250.994 Q 242.776 250.994 243.512 251.127 Q 244.248 251.259 244.886 251.506 Q 245.524 251.753 246.088 252.121 Q 246.651 252.489 247.192 252.972 L 246.835 253.49 Q 246.743 253.628 246.548 253.628 Q 246.444 253.628 246.283 253.507 Q 246.122 253.386 245.875 253.208 Q 245.628 253.03 245.277 252.817 Q 244.926 252.604 244.443 252.426 Q 243.96 252.248 243.328 252.127 Q 242.695 252.006 241.89 252.006 Q 240.407 252.006 239.165 252.518 Q 237.923 253.03 237.026 253.979 Q 236.129 254.927 235.628 256.279 Q 235.128 257.63 235.128 259.309 Q 235.128 261.034 235.623 262.391 Q 236.117 263.748 236.991 264.685 Q 237.865 265.622 239.055 266.123 Q 240.246 266.623 241.637 266.623 Q 242.511 266.623 243.195 266.508 Q 243.88 266.393 244.455 266.163 Q 245.03 265.933 245.524 265.599 Q 246.019 265.266 246.502 264.817 Q 246.559 264.771 246.611 264.743 Q 246.663 264.714 246.732 264.714 Z" style="fill: rgb(131, 103, 216); white-space: pre;" transform="matrix(2.653163, 0, 0, 2.653163, -363.788605, -462.617187)"/>
  <path d="M 263.115 251.178 L 263.115 252.179 L 257.399 252.179 L 257.399 267.451 L 256.226 267.451 L 256.226 252.179 L 250.476 252.179 L 250.476 251.178 Z" style="fill: rgb(131, 103, 216); white-space: pre;" transform="matrix(2.653163, 0, 0, 2.653163, -363.788605, -462.617187)"/>
  <path d="M 268.946 267.451 L 267.761 267.451 L 267.761 251.178 L 268.946 251.178 Z" style="fill: rgb(131, 103, 216); white-space: pre;" transform="matrix(2.653163, 0, 0, 2.653163, -363.788605, -462.617187)"/>
  <path d="M 290.123 259.309 Q 290.123 261.195 289.559 262.73 Q 288.996 264.265 287.972 265.352 Q 286.949 266.439 285.523 267.031 Q 284.097 267.623 282.36 267.623 Q 280.647 267.623 279.221 267.031 Q 277.795 266.439 276.771 265.352 Q 275.748 264.265 275.179 262.73 Q 274.609 261.195 274.609 259.309 Q 274.609 257.434 275.179 255.899 Q 275.748 254.364 276.771 253.277 Q 277.795 252.19 279.221 251.592 Q 280.647 250.994 282.36 250.994 Q 284.097 250.994 285.523 251.587 Q 286.949 252.179 287.972 253.271 Q 288.996 254.364 289.559 255.899 Q 290.123 257.434 290.123 259.309 Z M 288.904 259.309 Q 288.904 257.607 288.432 256.25 Q 287.961 254.893 287.104 253.95 Q 286.247 253.007 285.04 252.507 Q 283.832 252.006 282.36 252.006 Q 280.911 252.006 279.71 252.507 Q 278.508 253.007 277.64 253.95 Q 276.771 254.893 276.294 256.25 Q 275.817 257.607 275.817 259.309 Q 275.817 261.022 276.294 262.374 Q 276.771 263.725 277.64 264.668 Q 278.508 265.611 279.71 266.105 Q 280.911 266.6 282.36 266.6 Q 283.832 266.6 285.04 266.105 Q 286.247 265.611 287.104 264.668 Q 287.961 263.725 288.432 262.374 Q 288.904 261.022 288.904 259.309 Z" style="fill: rgb(131, 103, 216); white-space: pre;" transform="matrix(2.653163, 0, 0, 2.653163, -363.788605, -462.617187)"/>
  <path d="M 295.926 251.178 Q 296.087 251.178 296.179 251.219 Q 296.271 251.259 296.374 251.397 L 306.908 265.496 Q 306.874 265.151 306.874 264.829 L 306.874 251.178 L 307.909 251.178 L 307.909 267.451 L 307.345 267.451 Q 307.081 267.451 306.92 267.221 L 296.34 253.099 Q 296.374 253.444 296.374 253.754 L 296.374 267.451 L 295.351 267.451 L 295.351 251.178 L 295.926 251.178 Z" style="fill: rgb(131, 103, 216); white-space: pre;" transform="matrix(2.653163, 0, 0, 2.653163, -363.788605, -462.617187)"/>
</svg>