<svg width="25" height="25" viewBox="0 0 25 25" fill="none" xmlns="http://www.w3.org/2000/svg">
<path d="M16.1504 12.4004C16.1504 13.395 15.7553 14.3488 15.052 15.052C14.3488 15.7553 13.395 16.1504 12.4004 16.1504C11.4058 16.1504 10.452 15.7553 9.74874 15.052C9.04548 14.3488 8.65039 13.395 8.65039 12.4004C8.65039 12.1866 8.67289 11.9779 8.71164 11.7754H7.40039V16.7716C7.40039 17.1191 7.68164 17.4004 8.02914 17.4004H16.7729C16.9394 17.4001 17.099 17.3337 17.2167 17.2158C17.3343 17.0979 17.4004 16.9382 17.4004 16.7716V11.7754H16.0891C16.1279 11.9779 16.1504 12.1866 16.1504 12.4004ZM12.4004 14.9004C12.7288 14.9003 13.0539 14.8355 13.3573 14.7098C13.6606 14.5841 13.9363 14.3998 14.1684 14.1675C14.4006 13.9353 14.5847 13.6596 14.7103 13.3561C14.8359 13.0527 14.9005 12.7275 14.9004 12.3991C14.9003 12.0708 14.8355 11.7456 14.7098 11.4422C14.5841 11.1389 14.3998 10.8633 14.1675 10.6311C13.9353 10.399 13.6596 10.2148 13.3561 10.0893C13.0527 9.96366 12.7275 9.89906 12.3991 9.89914C11.7359 9.89931 11.1 10.1629 10.6311 10.632C10.1623 11.1011 9.89897 11.7372 9.89914 12.4004C9.89931 13.0636 10.1629 13.6996 10.632 14.1684C11.1011 14.6373 11.7372 14.9006 12.4004 14.9004ZM15.4004 9.77539H16.8991C16.9987 9.77539 17.0942 9.73592 17.1647 9.66563C17.2353 9.59534 17.2751 9.49996 17.2754 9.40039V7.90164C17.2754 7.80185 17.2358 7.70615 17.1652 7.63559C17.0946 7.56503 16.9989 7.52539 16.8991 7.52539H15.4004C15.3006 7.52539 15.2049 7.56503 15.1343 7.63559C15.0638 7.70615 15.0241 7.80185 15.0241 7.90164V9.40039C15.0254 9.60664 15.1941 9.77539 15.4004 9.77539ZM12.4004 0.400391C9.21779 0.400391 6.16555 1.66467 3.91511 3.91511C1.66467 6.16555 0.400391 9.21779 0.400391 12.4004C0.400391 15.583 1.66467 18.6352 3.91511 20.8857C6.16555 23.1361 9.21779 24.4004 12.4004 24.4004C13.9763 24.4004 15.5367 24.09 16.9926 23.4869C18.4485 22.8839 19.7714 22 20.8857 20.8857C22 19.7714 22.8839 18.4485 23.4869 16.9926C24.09 15.5367 24.4004 13.9763 24.4004 12.4004C24.4004 10.8245 24.09 9.2641 23.4869 7.80819C22.8839 6.35228 22 5.02941 20.8857 3.91511C19.7714 2.80081 18.4485 1.91689 16.9926 1.31384C15.5367 0.71078 13.9763 0.400391 12.4004 0.400391ZM18.6504 17.2616C18.6504 18.0254 18.0254 18.6504 17.2616 18.6504H7.53914C6.77539 18.6504 6.15039 18.0254 6.15039 17.2616V7.53914C6.15039 6.77539 6.77539 6.15039 7.53914 6.15039H17.2616C18.0254 6.15039 18.6504 6.77539 18.6504 7.53914V17.2616Z" fill="#9B9B9B"/>
</svg>
