<svg width="75" height="70" viewBox="0 0 75 70" fill="none" xmlns="http://www.w3.org/2000/svg">
<path d="M73.807 15.8336C73.1446 14.686 72.1962 13.7296 71.054 13.0578C69.9119 12.386 68.6152 12.0216 67.2903 12.0003H18.2237L16.0003 3.33696C15.7757 2.50067 15.2745 1.76508 14.5785 1.24999C13.8824 0.734894 13.0324 0.470651 12.167 0.500295H4.50033C3.48366 0.500295 2.50864 0.904163 1.78975 1.62305C1.07086 2.34194 0.666992 3.31697 0.666992 4.33363C0.666992 5.35029 1.07086 6.32531 1.78975 7.0442C2.50864 7.76309 3.48366 8.16696 4.50033 8.16696H9.25366L19.8337 47.497C20.0583 48.3332 20.5595 49.0688 21.2555 49.5839C21.9516 50.099 22.8016 50.3633 23.667 50.3336H58.167C58.8749 50.3315 59.5684 50.1334 60.1705 49.7612C60.7727 49.3891 61.2601 48.8575 61.5787 48.2253L74.152 23.0786C74.697 21.9364 74.9507 20.6769 74.8905 19.4127C74.8303 18.1486 74.458 16.919 73.807 15.8336ZM55.7903 42.667H26.5803L20.332 19.667H67.2903L55.7903 42.667Z" fill="#8367D8"/>
<path d="M73.807 15.8336C73.1446 14.686 72.1962 13.7296 71.054 13.0578C69.9119 12.386 68.6152 12.0216 67.2903 12.0003H18.2237L16.0003 3.33696C15.7757 2.50067 15.2745 1.76508 14.5785 1.24999C13.8824 0.734894 13.0324 0.470651 12.167 0.500295H4.50033C3.48366 0.500295 2.50864 0.904163 1.78975 1.62305C1.07086 2.34194 0.666992 3.31697 0.666992 4.33363C0.666992 5.35029 1.07086 6.32531 1.78975 7.0442C2.50864 7.76309 3.48366 8.16696 4.50033 8.16696H9.25366L19.8337 47.497C20.0583 48.3332 20.5595 49.0688 21.2555 49.5839C21.9516 50.099 22.8016 50.3633 23.667 50.3336H58.167C58.8749 50.3315 59.5684 50.1334 60.1705 49.7612C60.7727 49.3891 61.2601 48.8575 61.5787 48.2253L74.152 23.0786C74.697 21.9364 74.9507 20.6769 74.8905 19.4127C74.8303 18.1486 74.458 16.919 73.807 15.8336ZM55.7903 42.667H26.5803L20.332 19.667H67.2903L55.7903 42.667Z" stroke="#8367D8"/>
<path d="M21.75 69.5C24.9256 69.5 27.5 66.9256 27.5 63.75C27.5 60.5744 24.9256 58 21.75 58C18.5744 58 16 60.5744 16 63.75C16 66.9256 18.5744 69.5 21.75 69.5Z" fill="#8367D8"/>
<path d="M21.75 69.5C24.9256 69.5 27.5 66.9256 27.5 63.75C27.5 60.5744 24.9256 58 21.75 58C18.5744 58 16 60.5744 16 63.75C16 66.9256 18.5744 69.5 21.75 69.5Z" stroke="#8367D8"/>
<path d="M60.084 69.5C63.2596 69.5 65.834 66.9256 65.834 63.75C65.834 60.5744 63.2596 58 60.084 58C56.9083 58 54.334 60.5744 54.334 63.75C54.334 66.9256 56.9083 69.5 60.084 69.5Z" fill="#8367D8"/>
<path d="M60.084 69.5C63.2596 69.5 65.834 66.9256 65.834 63.75C65.834 60.5744 63.2596 58 60.084 58C56.9083 58 54.334 60.5744 54.334 63.75C54.334 66.9256 56.9083 69.5 60.084 69.5Z" stroke="#8367D8"/>
</svg>
