<svg width="25" height="25" viewBox="0 0 25 25" fill="none" xmlns="http://www.w3.org/2000/svg">
<path d="M12.4004 0.400391C5.77289 0.400391 0.400391 5.77289 0.400391 12.4004C0.400391 19.0279 5.77289 24.4004 12.4004 24.4004C19.0279 24.4004 24.4004 19.0279 24.4004 12.4004C24.4004 5.77289 19.0279 0.400391 12.4004 0.400391ZM17.2816 10.2304C17.2866 10.3329 17.2879 10.4354 17.2879 10.5354C17.2879 13.6604 14.9116 17.2616 10.5641 17.2616C9.27951 17.2638 8.0216 16.8948 6.94164 16.1991C7.12539 16.2216 7.31414 16.2304 7.50539 16.2304C8.61289 16.2304 9.63164 15.8541 10.4404 15.2191C9.94754 15.2095 9.46998 15.0463 9.07428 14.7523C8.67858 14.4583 8.38445 14.0482 8.23289 13.5791C8.58683 13.6464 8.95145 13.6323 9.29914 13.5379C8.7642 13.4297 8.28314 13.1399 7.93753 12.7175C7.59191 12.2951 7.40302 11.7662 7.40289 11.2204V11.1916C7.72164 11.3679 8.08664 11.4754 8.47414 11.4879C7.97264 11.1541 7.61762 10.6412 7.4817 10.0543C7.34577 9.46738 7.4392 8.85071 7.74289 8.33039C8.33658 9.06039 9.07697 9.65757 9.9161 10.0833C10.7552 10.509 11.6744 10.7537 12.6141 10.8016C12.4947 10.2945 12.5461 9.76215 12.7604 9.28727C12.9747 8.8124 13.3399 8.42163 13.7992 8.17572C14.2585 7.92981 14.7862 7.84254 15.3003 7.92748C15.8143 8.01242 16.2858 8.2648 16.6416 8.64539C17.1706 8.54074 17.6779 8.34671 18.1416 8.07164C17.9653 8.61931 17.5962 9.08436 17.1029 9.38039C17.5714 9.32396 18.029 9.19799 18.4604 9.00664C18.1435 9.48151 17.7443 9.89594 17.2816 10.2304Z" fill="#9B9B9B"/>
</svg>
